PathFileType	4	(X/Y/Z)	Kaydara	
DataRate	CameraRate	NumFrames	NumMarkers	Units	OrigDataRate	OrigDataStartFrame	OrigNumFrames	
240.00	240.00	4	72	mm	240.00	134	355	
Frame#	Time	Hips			RightUpLeg			RightLeg			RightFoot			RightFoot_End			LeftUpLeg			LeftLeg			LeftFoot			LeftFoot_End			Spine			Spine1			Spine2			Spine3			Neck			Head			Head_End			RightShoulder			RightArm			RightForeArm			RightHand			RightHandThumb1			RightHandThumb2			RightHandThumb3			RightHandThumb3_End			RightInHandIndex			RightHandIndex1			RightHandIndex2			RightHandIndex3			RightHandIndex3_End			RightInHandMiddle			RightHandMiddle1			RightHandMiddle2			RightHandMiddle3			RightHandMiddle3_End			RightInHandRing			RightHandRing1			RightHandRing2			RightHandRing3			RightHandRing3_End			RightInHandPinky			RightHandPinky1			RightHandPinky2			RightHandPinky3			RightHandPinky3_End			LeftShoulder			LeftArm			LeftForeArm			LeftHand			LeftHandThumb1			LeftHandThumb2			LeftHandThumb3			LeftHandThumb3_End			LeftInHandIndex			LeftHandIndex1			LeftHandIndex2			LeftHandIndex3			LeftHandIndex3_End			LeftInHandMiddle			LeftHandMiddle1			LeftHandMiddle2			LeftHandMiddle3			LeftHandMiddle3_End			LeftInHandRing			LeftHandRing1			LeftHandRing2			LeftHandRing3			LeftHandRing3_End			LeftInHandPinky			LeftHandPinky1			LeftHandPinky2			LeftHandPinky3			LeftHandPinky3_End			
		X1	Y1	Z1	X2	Y2	Z2	X3	Y3	Z3	X4	Y4	Z4	X5	Y5	Z5	X6	Y6	Z6	X7	Y7	Z7	X8	Y8	Z8	X9	Y9	Z9	X10	Y10	Z10	X11	Y11	Z11	X12	Y12	Z12	X13	Y13	Z13	X14	Y14	Z14	X15	Y15	Z15	X16	Y16	Z16	X17	Y17	Z17	X18	Y18	Z18	X19	Y19	Z19	X20	Y20	Z20	X21	Y21	Z21	X22	Y22	Z22	X23	Y23	Z23	X24	Y24	Z24	X25	Y25	Z25	X26	Y26	Z26	X27	Y27	Z27	X28	Y28	Z28	X29	Y29	Z29	X30	Y30	Z30	X31	Y31	Z31	X32	Y32	Z32	X33	Y33	Z33	X34	Y34	Z34	X35	Y35	Z35	X36	Y36	Z36	X37	Y37	Z37	X38	Y38	Z38	X39	Y39	Z39	X40	Y40	Z40	X41	Y41	Z41	X42	Y42	Z42	X43	Y43	Z43	X44	Y44	Z44	X45	Y45	Z45	X46	Y46	Z46	X47	Y47	Z47	X48	Y48	Z48	X49	Y49	Z49	X50	Y50	Z50	X51	Y51	Z51	X52	Y52	Z52	X53	Y53	Z53	X54	Y54	Z54	X55	Y55	Z55	X56	Y56	Z56	X57	Y57	Z57	X58	Y58	Z58	X59	Y59	Z59	X60	Y60	Z60	X61	Y61	Z61	X62	Y62	Z62	X63	Y63	Z63	X64	Y64	Z64	X65	Y65	Z65	X66	Y66	Z66	X67	Y67	Z67	X68	Y68	Z68	X69	Y69	Z69	X70	Y70	Z70	X71	Y71	Z71	X72	Y72	Z72	

134	0.554	7921.0129	906.651	56.2195	7986.246107554751	886.1846671326981	-1.7263525948261682	7906.884198537604	483.5000176909628	-83.02611177322616	7915.352293932927	104.9259530827818	-166.0096922645249	7840.67540899359	28.380944562453095	-7.597502075396754	7864.127143080935	898.5174562415142	125.77801583776937	7802.688161768815	495.6057378864169	222.34973996747107	7753.159164887732	64.40612535294343	295.7600694940775	7622.643969035333	-12.963034899683725	179.64442925044202	7881.574665977611	1034.4850480373104	5.793711750617741	7833.255693009262	1102.6690392572696	-43.2143879238677	7778.036749546962	1168.020485979492	-96.51171781808128	7718.333262532761	1221.0184292075162	-151.21342912801285	7654.015570505726	1277.7246842041827	-208.97946318494309	7594.242817834962	1329.2054497122024	-260.6561146364547	7474.45124603768	1422.2237278735215	-309.77188339932565	7694.614430628584	1258.2382267786124	-211.21567314369435	7746.26171294113	1247.1784819018005	-316.02155369456375	7753.171069278283	994.8017490997911	-299.061638308193	7787.701146676779	806.1147968322011	-372.85423924827506	7793.15768492712	800.3871584993035	-387.03857113993433	7784.157179834685	793.0644606638812	-399.8429300168272	7777.986261027005	785.7469339065387	-407.74685768221286	7772.924840910942	777.749189649573	-413.4693974459717	7795.62273874474	791.1729011119807	-384.7452817370835	7801.087208227899	763.3061425614591	-399.0017367496786	7796.254845039664	747.8547459721369	-408.726472422988	7788.00767786753	744.3810292671035	-414.3835139044877	7777.64501164478	745.6423353532989	-418.80357104945097	7795.286017636729	786.2975536247337	-381.48446212637685	7800.436229199225	756.478953563276	-393.62605632834834	7795.0902187389365	739.0704266182942	-403.76093273451215	7785.105298319738	734.6165744805214	-410.3571654793965	7773.749637300819	735.868852363216	-415.0822894117266	7794.998081605656	783.5041734480567	-378.815099397934	7799.625318459017	754.1801702195073	-387.37394961411087	7794.882059748467	738.4944011318099	-395.7011474986949	7785.20637280069	733.9261919628553	-401.7948110327052	7774.50812468492	734.9747051806404	-406.1101770923579	7793.803631756425	781.5651298864495	-375.3396013359559	7797.613084626745	753.2633777543053	-381.04569032966174	7793.663503126469	740.0316656251697	-386.88645203859846	7786.532801038292	736.37494739469	-390.9309788077993	7777.013754781921	737.1169222669914	-394.5233618016133	7655.659255483723	1260.1871919965963	-166.97425965747766	7602.59840999289	1212.2669037211072	-73.54627155856642	7698.6801510435125	1025.6037327350764	-188.2326164946516	7812.673077737205	858.524680045608	-294.94860489052996	7799.174616625216	857.3761252738021	-314.0948972212774	7794.212623599031	841.4835690184273	-342.7069328133231	7791.061828821486	827.9748022413506	-362.3427022309877	7788.6958448245505	814.6247566593264	-378.4644039781566	7798.016284215834	849.1333600339252	-314.0886350290941	7781.131103737172	823.0681672239112	-345.40443931281027	7774.787802844149	801.6517002036792	-371.06752694137526	7774.874147577054	790.5491092409088	-386.952666425232	7777.663957158513	782.8515729511237	-400.0538488689499	7799.689837091014	843.2451512707611	-312.39481606766753	7784.124220585812	814.6379469251829	-342.0220194236171	7777.48476105544	790.57183764461	-369.7053131580634	7777.724434066514	776.84275621316	-388.7164740900886	7780.842866436815	768.2577853717229	-402.97683309467845	7801.246810811343	839.7624115209978	-310.36404256060035	7788.4838428429475	811.1368803761982	-335.05078340115256	7783.010602891377	789.4938423744237	-358.8060246599516	7783.408407995647	775.8968826903118	-376.94538368391693	7786.419485658944	767.6570162939945	-390.2596873032491	7803.973779888724	836.4078934157337	-307.39162693265354	7793.754552225493	808.116985459942	-328.0944747981247	7789.91732829668	789.8703045004785	-346.42650162400525	7790.471385545516	779.5096522500444	-359.3235092874463	7793.290586362419	771.9555349117607	-370.9256439793137
135	0.558	7921.0129	906.651	56.2195	7985.9353246572	886.0556740608403	-1.8200070227472596	7906.62157878761	483.33108002460585	-82.92881834010517	7915.615904679971	104.88470713742856	-166.12969117125223	7840.948325551507	28.315348689297334	-7.725311406464492	7864.42437566737	898.6431151017609	125.87269549375257	7803.052040173566	495.7419284228508	222.51749163599493	7753.314634491044	64.54821240999246	295.73092692673526	7622.867248232434	-12.893906462838553	179.59648135885953	7881.643110414079	1034.5043668880678	5.793587772651455	7833.330790789233	1102.7251200674325	-43.16904768398442	7778.112337783634	1168.1190795321115	-96.40967131391972	7718.397568857173	1221.1618159022269	-151.04160614079737	7654.066322310283	1277.912697180493	-208.73315228433773	7594.283525824628	1329.435413988969	-260.34037925141104	7474.456475840107	1422.431803870594	-309.38995652616785	7694.5764085186465	1258.3444831015406	-210.98745014500707	7745.950793647587	1247.1499726996674	-315.58542551732955	7752.799240656109	995.2627071448844	-298.26485063912565	7786.934957172067	807.3663471321961	-371.87204719208603	7792.420363540752	801.811749785324	-386.07159251367653	7783.454746975116	794.552923342546	-398.85462795157804	7777.300031037327	787.2713380592581	-406.7428773630741	7772.245194801251	779.2962521009309	-412.45163800676096	7794.856056170372	792.5940461745636	-383.7804544394237	7800.302732805529	764.9059254500029	-398.0442366765358	7795.473995247859	749.5185583046181	-407.75416955426476	7787.245842322351	746.0446519733603	-413.3911903773375	7776.910219442546	747.2788220674948	-417.7873795098207	7794.498702251091	787.6863920756688	-380.51618016555346	7799.62039433918	758.0245725037156	-392.6630581769094	7794.2756954136485	740.6809969072784	-402.7812773105356	7784.312445893919	736.2245560953168	-409.3531137711752	7772.985758260863	737.4459950126552	-414.05200407777875	7794.196424202405	784.8662205716722	-377.84438786770403	7798.785011273908	755.6611988009928	-386.4064440371897	7794.04023986865	740.0267617154822	-394.71859725988435	7784.38404586885	735.4532515619067	-400.788449206246	7773.71237171498	736.4714395931866	-405.0790166340119	7792.987684976753	782.886460768649	-374.3643165665999	7796.752138596201	754.6707799854765	-380.0711938205246	7792.797372564761	741.4714122324842	-385.8990720563562	7785.678966716759	737.8065897488442	-389.92582601865377	7776.182354552548	738.5192625955646	-393.49600864040167	7655.8130822281455	1260.4290696662051	-166.76256448664162	7603.088527562437	1212.863108515902	-73.36869336478432	7698.833419208595	1026.1142920485788	-187.6583599139866	7811.932426769263	859.2192615001252	-293.909916617505	7798.460113628915	858.1858573905563	-312.9947259523971	7793.509716246992	842.3541536758282	-341.4762495339726	7790.369515562221	828.8813877203121	-361.01658214779695	7788.014518241629	815.555899205347	-377.05483144582035	7797.3160841013105	849.9361773089937	-312.9708378682682	7780.48961783346	823.9894476071506	-344.13016140209186	7774.171822898271	802.6266832905952	-369.6612819426974	7774.258989311798	791.5377083048246	-385.4675606295278	7777.0393371904	783.8381058010278	-398.5056171214683	7798.993714554608	844.0251353694479	-311.2689982189645	7783.487576083304	815.521134076382	-340.7392431465126	7776.876277029833	791.5101921998865	-368.27795497799536	7777.117098924627	777.7958905110144	-387.1936951653803	7780.225255058924	769.2078579608195	-401.38484775411166	7800.55225485344	840.5235146445775	-309.23672464141475	7787.844489435027	811.9748846900053	-333.7820045503199	7782.396034160116	790.3762563326391	-357.4108807452841	7782.795074825164	776.7916014671182	-375.45801466462274	7785.796550559496	768.5479315456162	-388.7071595267679	7803.277878610212	837.1416473091706	-306.26574751742356	7793.109089575092	808.9053685342948	-326.8402664043523	7789.291844435022	790.6881791849137	-345.0711791485396	7789.846866853112	780.3335658563805	-357.900953415048	7792.657598710102	772.7743893632293	-369.4453887500812
136	0.563	7921.0129	906.651	56.2195	7985.622581158232	885.9259080696767	-1.914210531205141	7906.357456672696	483.1611923717628	-82.83137926687526	7915.880305321102	104.8431741301303	-166.2506207750643	7841.222136959033	28.24937124079758	-7.854049585249857	7864.723533401054	898.7695544101081	125.96795760252199	7803.418018683817	495.87902998611776	222.68638078311864	7753.470672954956	64.69126406220498	295.70164759716886	7623.091498956772	-12.824223620870628	179.54827651184786	7881.711764154586	1034.5236783663463	5.793342317042745	7833.405870793431	1102.7812133539792	-43.12351806879052	7778.187628739846	1168.2177345379673	-96.30698673602306	7718.461248923164	1221.3053816955976	-150.86849660844163	7654.116099451342	1278.1010065524301	-208.48486360703419	7594.322978091054	1329.6658116610856	-260.02202233297584	7474.460374160427	1422.6404821076412	-309.00471034692737	7694.536690207076	1258.4503873360495	-210.75743802124924	7745.634676788343	1247.118477790276	-315.14522561371246	7752.42264422345	995.724833197446	-297.4581669052768	7786.161856670861	808.6224332065522	-370.8708935221023	7791.676132841702	803.2410389834778	-385.08518868276076	7782.74582263906	796.0459469250621	-397.8458173487757	7776.60757917065	788.8002439896708	-405.7175416313279	7771.559533276631	780.8477980810678	-411.4117380704163	7794.082337480063	794.0200807649612	-382.7958498811769	7799.511168652686	766.5110709863106	-397.0652752405907	7794.686288846926	751.1878132785114	-406.75911660299465	7786.477463487453	747.7135639676403	-412.3754574689201	7776.1692572871325	748.9203341517202	-416.74732860206177	7793.704307199749	789.0801904331207	-379.52792258454065	7798.797404862022	759.5756509565082	-391.67833452312766	7793.45426552181	742.2971214380393	-401.77846927827426	7783.513062395785	737.8379105064635	-408.3251040272272	7772.21575542437	739.0282234195272	-412.997263476018	7793.387654829168	786.2332681132225	-376.8536037979349	7797.937488481665	757.1477190881457	-385.41721426381406	7793.191415377705	741.564703357123	-393.7130603915343	7783.555073755726	736.9857208035494	-399.75831399426966	7772.91035519589	737.9733154666926	-404.0236105958139	7792.164613198468	784.2128025060406	-373.3688944046215	7795.883954802255	756.0836598695589	-379.07500532910046	7791.924165548997	742.9167164655707	-384.8889674239143	7784.818314410945	739.2436687721777	-388.8973641910743	7775.344472273719	739.9268043728986	-392.44492209598	7655.9669335282015	1260.6718327648075	-166.54919176588425	7603.582071167112	1213.4634611858119	-73.18960100282123	7698.988991743099	1026.6273422744503	-187.07704065985115	7811.187751067532	859.915980727836	-292.8567428819649	7797.741905387543	858.9980170387186	-311.87913014991784	7792.8034465833125	843.2275104573165	-340.2289162897864	7789.6741798585335	829.7909649249063	-359.67299553686917	7787.330538991012	816.4901991208366	-375.6271431574784	7796.612610015111	850.7413680242809	-311.8376874578265	7779.846208064892	824.9134191481385	-342.83923046943266	7773.554646410229	803.6046194703671	-368.23734359524934	7773.642783116999	792.5294376627122	-383.96411102457864	7776.413587536263	784.8279252979568	-396.9385006899535	7798.294535802971	844.8074283799442	-310.1279660696952	7782.849310064301	816.4069051163415	-339.4400600063378	7776.266989229636	792.4514069732745	-366.83307711176894	7776.509150862052	778.7520942577803	-385.652622537585	7779.606946922594	770.1611688625809	-399.77398211654577	7799.854765156778	841.2868724983506	-308.0943251184642	7787.2036034064495	812.8153417169298	-332.4971944944215	7781.780667880517	791.2613537218766	-355.9987604242334	7782.18114005545	777.6892001141796	-373.95293577621044	7785.172940649752	769.441882892259	-387.13637656095784	7802.5791213443945	837.8775880983827	-305.1249663718638	7792.462114752769	809.696076750082	-325.5704003505218	7788.665465717174	791.5085470946533	-343.69948485815553	7789.221610112374	781.1601079094369	-356.46151140564973	7792.023816145485	773.596006011305	-367.9477762138657
137	0.567	7921.0129	906.651	56.2195	7985.3078915091655	885.7953754045236	-2.0089580716322546	7906.091845866927	482.99036272943545	-82.73379910258923	7916.14548357499	104.80135622150857	-166.37247557648152	7841.496830725965	28.183015637068713	-7.983710582314265	7865.024602477078	898.8967681021934	126.06379711551612	7803.786079790466	496.0170361719504	222.8563991512124	7753.627272962151	64.83527371178901	295.6722333864377	7623.316710689868	-12.753989424837835	179.49981743906335	7881.780623947999	1034.5429814520128	5.792975156907275	7833.480929406309	1102.8373164319535	-43.077801205635126	7778.262618736834	1168.3164464332385	-96.20366852566632	7718.524299588203	1221.4491201570752	-150.69410774610236	7654.164899434231	1278.28960405593	-208.23460731950493	7594.361172670394	1329.8966327820365	-259.70105679443685	7474.462940879958	1422.8497541486274	-308.6161600593038	7694.49527697609	1258.5559349981506	-210.52564586130558	7745.313374288569	1247.0839985387404	-314.7009698811627	7752.04130277861	996.1881113385076	-296.6416159837747	7785.381891609148	809.8830127502822	-369.85080468226033	7790.925040006037	804.6749764221245	-384.07938556727174	7782.030453714913	797.543478904153	-396.81652491532867	7775.908952287197	790.3335977332133	-404.6708775565944	7770.867903321104	782.40377285321	-410.349724850474	7793.301630715668	795.4509559773534	-381.79149305989256	7798.712566121284	768.1215238855914	-396.06487545343805	7793.891776831024	752.8624533771439	-405.7413363229606	7785.702591906911	749.3877076307525	-411.3363386948143	7775.42217477716	750.5668147687292	-415.6834430942615	7792.902880866524	790.478901525592	-378.519713999646	7797.967311589986	761.1321364657671	-390.6719078397347	7792.625980622897	743.9187455715511	-400.75253078667834	7782.7071988592825	739.4565830723201	-407.2731592952097	7771.439678799281	740.6154838566373	-411.91809201466924	7792.57182206381	787.6052702689917	-375.8427715732435	7797.082801047213	758.6396816693255	-384.40628251830725	7792.3356379164015	743.1081750086761	-392.68455879588475	7782.71950761283	738.5235487786898	-398.7044281447169	7772.1021253228255	739.4802828189247	-402.94398299494827	7791.3344650664485	785.544111216066	-372.3533591277137	7795.008584159454	757.5019713290393	-378.05714704142156	7791.043933576309	744.3675313680585	-383.8561600167021	7783.950895281146	740.6861378184229	-387.8456157918596	7774.500158270091	741.3395018939066	-391.37012574482173	7656.120802441113	1260.9154703730544	-166.3341506559288	7604.079019620403	1214.0679353008184	-73.00900487979911	7699.1468720663615	1027.1428630111964	-186.48868256041436	7810.439095327558	860.6148158097005	-291.7891177161434	7797.020036436137	859.8125788219353	-310.7481476738528	7792.093860706118	844.1036126821377	-338.9649766163308	7788.975868894343	830.7035065304086	-358.31199002758194	7786.643955159451	817.4276287585036	-374.1813902762689	7795.905906287102	851.5489071639537	-310.68922244699223	7779.200918974577	825.8400538864743	-341.5316930421196	7772.9363190362665	804.5854797930434	-366.7957642756859	7773.025575856167	793.5242683554659	-382.4423730985861	7775.786756406405	785.8210028840268	-395.3525572839011	7797.59234519694	845.5920061205492	-308.97175839679136	7782.209467114109	817.2952334421983	-338.1245165330242	7775.656943459408	793.3954544030506	-365.37073246389525	7775.900637142079	779.7113399387254	-384.09331286122193	7778.987990765825	771.1176910294988	-398.1442952650733	7799.154386088865	842.0524615553641	-306.9368826566358	7786.56122930309	813.6582263001416	-331.1963987457044	7781.1645496656165	792.1491086770912	-354.5697147445235	7781.566650708971	778.5896528795066	-372.4302016726258	7784.548704339902	770.3388450533369	-385.5473953380423	7801.877552537265	838.6156931728292	-303.9693218132167	7791.813672383779	810.489086533288	-324.28492101831193	7788.03823762918	792.3313842947143	-342.3114675050973	7788.595661840412	781.9892546564138	-355.00523461187856	7791.389286416717	774.4203615781644	-366.4328597242061
